<?xml version="1.0" encoding="UTF-8"?>
<svg id="Layer_1" xmlns="http://www.w3.org/2000/svg" version="1.1" viewBox="0 0 300 300">
  <!-- Generator: Adobe Illustrator 29.6.1, SVG Export Plug-In . SVG Version: 2.1.1 Build 9)  -->
  <defs>
    <style>
      .st0 {
        fill: #023;
      }
    </style>
  </defs>
  <path class="st0" d="M265.01,66.05c-1.53-5.6-5.19-10.66-10.35-14.54-27.05-20.33-59.22-35.55-94.22-44.6-3.4-.88-6.91-1.31-10.43-1.31s-7.03.43-10.43,1.31c-35.01,9.05-67.19,24.27-94.24,44.6-5.17,3.88-8.83,8.94-10.35,14.54-4.03,14.77-6.04,29.81-6.04,44.85v78.2c0,15.05,2.01,30.09,6.04,44.85,1.52,5.6,5.19,10.66,10.35,14.55,27.05,20.32,59.22,35.55,94.24,44.59,3.4.88,6.91,1.31,10.43,1.31s7.04-.43,10.43-1.31c35-9.04,67.19-24.27,94.23-44.59,5.17-3.89,8.83-8.94,10.35-14.55,4.03-14.76,6.04-29.8,6.04-44.85v-78.2c0-15.04-2.01-30.08-6.04-44.85M261.66,155.13c-1.37,5-4.59,9.52-9.32,13.08-13.28,9.97-27.92,18.79-43.53,26.16-15.6,7.39-32.22,13.38-49.41,17.81-3.06.78-6.21,1.18-9.4,1.18s-6.35-.39-9.4-1.18c-17.18-4.43-33.81-10.43-49.41-17.81-15.61-7.38-30.24-16.19-43.53-26.16-4.74-3.55-7.97-8.09-9.32-13.08-.9-3.36-.9-6.89,0-10.25,1.36-5,4.58-9.52,9.32-13.08,13.28-9.97,27.92-18.79,43.53-26.16,15.6-7.39,32.22-13.38,49.41-17.82,3.05-.78,6.21-1.17,9.4-1.17s6.35.39,9.4,1.17c17.18,4.44,33.81,10.43,49.41,17.82,15.61,7.38,30.25,16.19,43.53,26.16,4.73,3.55,7.96,8.08,9.32,13.08.91,3.36.91,6.89,0,10.25Z"/>
</svg>